<?xml version="1.0" encoding="utf-8"?>
<!-- Generator: Adobe Illustrator 21.0.1, SVG Export Plug-In . SVG Version: 6.00 Build 0)  -->
<svg version="1.1" id="Layer_1" xmlns="http://www.w3.org/2000/svg" xmlns:xlink="http://www.w3.org/1999/xlink" x="0px" y="0px"
	 viewBox="0 0 500 500" style="enable-background:new 0 0 500 500;" xml:space="preserve">
<g>
	<path d="M20.3,351C5.6,311.7-2.1,271.4,0.5,229.3C7.5,120,98.6,21.3,206.3,3.4c125.6-20.8,250.6,54.9,285.1,182.4
		c13.4,49.5,10.9,98.7-5.8,147.3c-1.9,6.1-4.2,11.8-6.4,17.9c-2.9,5.1-5.8,9.9-8.3,15C421.4,463.1,303.1,521.6,190,492.5
		c-32.9-8.3-63.9-21.4-90.8-42.5C65.4,423.8,38.8,390.6,20.3,351z M157.4,84.2c-3.2-1.6-4.8,0.6-6.7,2.2
		c-25.2,25.2-50.2,50.5-75.4,75.4c-5.4,5.4-5.4,8.6,0,13.7c19.5,18.8,38.4,38.3,57.5,57.5c7.7,7.7,14.1,16.6,25.2,22.7
		c0-10.9,1-19.8-0.3-28.8c-1.6-13.7,3.8-16.9,16.9-16.6c42.5,1,85,0,127.5,0.6c11.2,0.3,14.7-3.2,14.1-14.4c-1-17.9-0.6-36.1,0-54.3
		c0.3-10.2-2.6-13.7-13.4-13.4c-43.1,0.6-86.3,0-129.1,0.6c-12.1,0.3-17.6-2.2-16.3-15.7C158.7,104,157.4,93.8,157.4,84.2
		c-0.3-0.6-0.3-1,0-1C157.1,83.3,157.1,83.6,157.4,84.2z M341.2,240.5c0,14.7-0.6,24.3,0.3,33.5c1.3,11.8-2.6,15.7-14.7,15.3
		c-43.8-0.6-87.3,0-131-0.6c-9.6,0-13.1,2.2-12.8,12.5c0.6,18.2,1,36.1,0,54.3c-0.6,11.8,2.6,15.7,15,15.3c43.8-0.6,87.3,0,131-0.6
		c10.9,0,13.7,3.2,13.4,13.4c-0.3,10.5-2.6,21.7,2.6,34.5c27.8-28.1,54.3-54.9,81.2-81.8c4.5-4.5,4.2-7.3-0.3-11.5
		C398.1,298.3,371.2,271.1,341.2,240.5z"/>
</g>
</svg>
